{"title":"B Projekt - Naal Nachona - [2010] [Video] [PbTone]","uid":5992391,"size":27814874,"categoryP":"video","categoryS":"music_videos","magnet":"?xt=urn:btih:9dd8720d0edfb90b3902fc6eb1522a753bad7ad0&amp;dn=B+Projekt+-+Naal+Nachona+-+%5B2010%5D+%5BVideo%5D+%5BPbTone%5D&amp;tr=udp%3A%2F%2Ftracker.openbittorrent.com%3A80&amp;tr=udp%3A%2F%2Fopen.demonii.com%3A1337&amp;tr=udp%3A%2F%2Ftracker.coppersurfer.tk%3A6969&amp;tr=udp%3A%2F%2Fexodus.desync.com%3A6969","seeders":0,"leechers":1,"uploader":"PBTONE","files":-1,"time":1290934666,"description":"      :::::::::  :::::::::   ::::::::::: ::::::::  ::::    ::: :::::::::: \n     :+:    :+: :+:    :+:      :+:    :+:    :+: :+:+:   :+: :+:         \n    +:+    +:+ +:+    +:+      +:+    +:+    +:+ :+:+:+  +:+ +:+          \n   +#++:++#+  +#++:++#+       +#+    +#+    +:+ +#+ +:+ +#+ +#++:++#      \n  +#+        +#+    +#+      +#+    +#+    +#+ +#+  +#+#+# +#+            \n #+#        #+#    #+#      #+#    #+#    #+# #+#   #+#+# #+#             \n###        #########       ###     ########  ###    #### ########## \n\n\n\nGeneral\nFormat                           : Flash Video\nFile size                        : 26.3 MiB\nDuration                         : 3mn 17s\nOverall bit rate                 : 1 114 Kbps\nhttphostheader                   : r6.kul06s03.c.youtube.com\n\nVideo\nFormat                           : AVC\nFormat/Info                      : Advanced Video Codec\nFormat profile                   : &lt;a class=&quot;__cf_email__&quot; href=&quot;/cdn-cgi/l/email-protection&quot; data-cfemail=&quot;97daf6fef9d7dba4b9a7&quot;&gt;[email&amp;#160;protected]&lt;/a&gt;&lt;script cf-hash='f9e31' type=&quot;text/javascript&quot;&gt;\n/* &lt;![CDATA[ */!function(){try{var t=&quot;currentScript&quot;in document?document.currentScript:function(){for(var t=document.getElementsByTagName(&quot;script&quot;),e=t.length;e--;)if(t[e].getAttribute(&quot;cf-hash&quot;))return t[e]}();if(t&amp;&amp;t.previousSibling){var e,r,n,i,c=t.previousSibling,a=c.getAttribute(&quot;data-cfemail&quot;);if(a){for(e=&quot;&quot;,r=parseInt(a.substr(0,2),16),n=2;a.length-n;n+=2)i=parseInt(a.substr(n,2),16)^r,e+=String.fromCharCode(i);e=document.createTextNode(e),c.parentNode.replaceChild(e,c)}}}catch(u){}}();/* ]]&gt; */&lt;/script&gt;\nFormat settings, CABAC           : Yes\nFormat settings, ReFrames        : 3 frames\nDuration                         : 3mn 17s\nBit rate                         : 1 002 Kbps\nWidth                            : 720 pixels\nHeight                           : 480 pixels\nDisplay aspect ratio             : 3:2\nFrame rate mode                  : Constant\nFrame rate                       : 29.922 fps\nOriginal frame rate              : 29.917 fps\nStandard                         : NTSC\nColor space                      : YUV\nChroma subsampling               : 4:2:0\nBit depth                        : 8 bits\nScan type                        : Progressive\nBits/(Pixel*Frame)               : 0.097\nStream size                      : 23.6 MiB (90%)\n\nAudio\nFormat                           : AAC\nFormat/Info                      : Advanced Audio Codec\nFormat version                   : Version 4\nFormat profile                   : LC\nDuration                         : 3mn 17s\nBit rate                         : 105 Kbps\nChannel(s)                       : 2 channels\nChannel positions                : Front: L R\nSampling rate                    : 44.1 KHz\nBit depth                        : 16 bits\nCompression mode                 : Lossy\nStream size                      : 2.48 MiB (9%)\n\n\nScreens:- http://imagehacks.in/share-6268_4CF20C1F.html","torrent":{"xt":"urn:btih:9dd8720d0edfb90b3902fc6eb1522a753bad7ad0","amp;dn":"B+Projekt+-+Naal+Nachona+-+%5B2010%5D+%5BVideo%5D+%5BPbTone%5D","amp;tr":["udp%3A%2F%2Ftracker.openbittorrent.com%3A80","udp%3A%2F%2Fopen.demonii.com%3A1337","udp%3A%2F%2Ftracker.coppersurfer.tk%3A6969","udp%3A%2F%2Fexodus.desync.com%3A6969"],"infoHash":"9dd8720d0edfb90b3902fc6eb1522a753bad7ad0","infoHashBuffer":{"type":"Buffer","data":[157,216,114,13,14,223,185,11,57,2,252,110,177,82,42,117,59,173,122,208]},"announce":[],"urlList":[]}}